<svg width="83" height="32" viewBox="0 0 83 32" fill="none" xmlns="http://www.w3.org/2000/svg">
<g opacity="0.9">
<g clip-path="url(#clip0_201_10538)">
<path d="M15.696 21.382C14.5474 20.7831 12.6793 20.4613 10.0916 20.4166L8.78093 20.3965H7.77533C7.07689 20.405 6.37942 20.3421 5.69377 20.2088C5.35698 20.1622 5.03688 20.0333 4.76191 19.8333C4.62947 19.6896 4.55956 19.4991 4.56751 19.3037C4.55518 19.1077 4.61881 18.9144 4.74518 18.764C5.04428 18.5579 5.38974 18.4289 5.75077 18.3886C6.49627 18.2472 7.25485 18.1865 8.01335 18.2076H8.66026C9.19461 18.2012 9.7285 18.2416 10.2558 18.3283C10.6527 18.38 11.0434 18.471 11.4223 18.5998C11.6582 18.687 11.8738 18.8217 12.0558 18.9953C12.1796 19.1055 12.2839 19.2359 12.3642 19.3808C12.4112 19.4881 12.445 19.6006 12.4647 19.716H12.924L16.8592 18.6501C16.8363 18.5625 16.8083 18.4763 16.7754 18.392C16.6042 17.9804 16.347 17.6101 16.0212 17.3059C15.6099 16.9125 15.1291 16.5988 14.6033 16.3808C13.856 16.0843 13.0763 15.8773 12.2804 15.764C11.1713 15.5943 10.0504 15.5148 8.92843 15.5261H7.64125C6.56744 15.5152 5.49457 15.5926 4.43343 15.7573C3.68097 15.8619 2.94452 16.0601 2.24122 16.3473C1.74993 16.5526 1.30359 16.8521 0.927274 17.2288C0.626519 17.5201 0.397092 17.8768 0.25688 18.2713C0.142796 18.6392 0.0862624 19.0225 0.0892808 19.4076V19.5618C0.0892808 21.935 2.34626 23.1786 6.86025 23.2926H6.93734L7.88262 23.3127L9.25021 23.3395C10.0439 23.3392 10.836 23.411 11.6167 23.554C11.9957 23.601 12.356 23.7453 12.6625 23.973C12.8191 24.1523 12.8997 24.3856 12.8871 24.6233C12.8914 24.8009 12.8462 24.9762 12.7564 25.1294C12.6203 25.3111 12.4404 25.4553 12.2335 25.5484C11.8369 25.7216 11.4145 25.828 10.9832 25.8636C10.3837 25.9482 9.77851 25.9863 9.17312 25.9775H8.16753C5.52617 25.9775 4.54405 25.3071 4.44014 23.9663L0.0222168 25.163C0.0280788 25.1992 0.0359346 25.2349 0.0457035 25.2702C0.180214 25.7032 0.395147 26.1069 0.679232 26.4602C1.04144 26.9245 1.49855 27.3062 2.02002 27.5798C2.77548 27.9539 3.58013 28.2191 4.40998 28.3675C5.60089 28.603 6.81283 28.7153 8.02673 28.7027H9.31388C10.4908 28.7161 11.6668 28.6331 12.8301 28.4546C13.644 28.3422 14.4402 28.1271 15.2 27.8144C15.7261 27.5889 16.1998 27.2568 16.591 26.839C16.9011 26.5136 17.1367 26.1248 17.2815 25.6993C17.3984 25.2907 17.4549 24.8672 17.4491 24.4423V24.2043C17.4706 23.6129 17.3153 23.0285 17.003 22.5258C16.6908 22.023 16.2357 21.6248 15.696 21.382Z" fill="#FFFFFE"/>
<path d="M33.4997 19.0592L30.6439 19.8335C30.5986 19.9984 30.5333 20.1572 30.4494 20.3062C30.3064 20.1989 30.1589 20.0984 30.007 20.0045C28.7667 19.2268 27.2337 18.838 25.408 18.838H25.15C23.027 18.838 21.4628 19.2648 20.4572 20.1185C19.9717 20.516 19.5834 21.0192 19.322 21.5897C19.0605 22.1602 18.9329 22.7828 18.9488 23.4101V23.7453C18.9314 24.3956 19.0631 25.0413 19.3338 25.6327C19.6046 26.2242 20.0072 26.7458 20.5108 27.1576C21.5544 28.0314 23.1723 28.4683 25.3645 28.4683H25.5153C26.3798 28.4799 27.242 28.3774 28.0796 28.1632C28.6309 28.0379 29.163 27.8395 29.6617 27.5733C29.9323 27.4081 30.1821 27.2112 30.4058 26.9867V31.4549H34.5623V19.0526L33.4997 19.0592ZM30.4125 23.6481C30.4125 24.285 30.0774 24.8436 29.407 25.3241C28.7366 25.8046 27.8192 26.0459 26.655 26.0481H26.5611C25.398 26.0481 24.5499 25.8101 24.0069 25.3408C23.7557 25.1392 23.5526 24.8842 23.4123 24.5943C23.272 24.3044 23.198 23.9869 23.1957 23.6648V23.5978C23.1904 23.2792 23.2563 22.9634 23.3885 22.6735C23.5207 22.3835 23.716 22.1267 23.96 21.9218C24.4673 21.4749 25.322 21.2514 26.5243 21.2514H26.6181C27.7947 21.2514 28.7231 21.4794 29.3969 21.942C30.0706 22.4045 30.4025 22.9475 30.4025 23.5878L30.4125 23.6481Z" fill="#FFFFFE"/>
<path d="M46.1411 19.1516V23.4823C46.1529 23.8256 46.0863 24.167 45.9463 24.4807C45.8064 24.7943 45.5967 25.072 45.3333 25.2924C44.7144 25.7692 43.9446 26.0072 43.1646 25.9628C42.3087 25.9628 41.6673 25.7583 41.2405 25.3494C41.022 25.1307 40.852 24.8685 40.7417 24.5797C40.6314 24.2909 40.5832 23.9821 40.6003 23.6734V19.1382H36.4137V24.8533C36.4166 25.3415 36.5243 25.8234 36.7296 26.2664C36.9349 26.7094 37.233 27.1031 37.6036 27.4209C38.3992 28.1517 39.5902 28.5181 41.1768 28.5204H41.3243C41.856 28.5224 42.3865 28.4674 42.9065 28.3561C43.3186 28.2698 43.725 28.1578 44.1232 28.0209C44.4691 27.8897 44.7995 27.7211 45.1087 27.5181C45.4439 27.2902 45.6752 27.1427 45.7489 27.0824L46.178 26.7137V28.3025H50.2875V19.1248L46.1411 19.1516Z" fill="#FFFFFE"/>
<path d="M64.9725 26.003C64.644 26.003 64.4797 25.8454 64.4797 25.5303V21.9169C64.4842 21.6292 64.4607 21.3418 64.4094 21.0588C64.333 20.7658 64.1946 20.4926 64.0037 20.2577C63.7533 19.942 63.4285 19.6932 63.0585 19.5336C62.5058 19.3025 61.9256 19.1436 61.3322 19.061C60.4352 18.9215 59.5282 18.8565 58.6205 18.8666H51.769V21.0521H58.2149C58.7701 21.0372 59.3252 21.0822 59.8708 21.1862C60.1228 21.2145 60.3631 21.308 60.568 21.4576C60.6477 21.5636 60.688 21.6939 60.682 21.8264C60.682 22.1046 60.4808 22.2688 60.0819 22.3158L55.7478 22.718C54.3266 22.8487 53.3109 23.1336 52.6942 23.5794C52.3879 23.8032 52.1427 24.1004 51.981 24.4436C51.8194 24.7868 51.7465 25.1651 51.769 25.5437V25.6644C51.7631 26.0923 51.8581 26.5155 52.0462 26.8998C52.2343 27.2842 52.5103 27.6188 52.8517 27.8767C53.5724 28.4599 54.6819 28.7516 56.1702 28.7516H56.4015C57.3858 28.7919 58.3683 28.6346 59.2909 28.289C59.8598 28.0729 60.3713 27.7289 60.7859 27.2834C60.9266 28.1482 61.4261 28.5806 62.2842 28.5806H62.5591L65.4719 27.7929V26.0197L64.9725 26.003ZM60.692 24.3739C60.692 24.9571 60.3568 25.4767 59.7233 25.9325C58.9855 26.4095 58.1171 26.6439 57.2395 26.6029C56.7768 26.6424 56.3137 26.532 55.9188 26.2879C55.7958 26.2037 55.6948 26.0913 55.6242 25.9601C55.5537 25.8289 55.5156 25.6827 55.5132 25.5337C55.5065 25.4186 55.5326 25.304 55.5884 25.2032C55.6441 25.1023 55.7273 25.0193 55.8283 24.9638C56.1785 24.8002 56.5534 24.696 56.9378 24.6555L60.692 24.0789V24.3739Z" fill="#FFFFFE"/>
<path d="M82.35 15.6115L78.2338 16.7277V20.3545C77.0315 19.3892 75.3556 18.9065 73.2058 18.9065H72.9075C70.8002 18.9065 69.2505 19.3322 68.2583 20.1836C67.778 20.5844 67.3946 21.0888 67.1368 21.6588C66.8791 22.2289 66.7537 22.8499 66.77 23.4753V23.8105C66.754 24.42 66.8704 25.0257 67.1112 25.5858C67.3519 26.146 67.7113 26.6473 68.1644 27.0552L68.3421 27.2127C69.3879 28.0932 70.9656 28.5345 73.0751 28.5367H73.3164C74.0096 28.5411 74.7015 28.4748 75.3813 28.339C76.2507 28.1847 77.0757 27.8414 77.798 27.3334C77.971 27.2147 78.1276 27.0739 78.2639 26.9144V28.3155H82.3936V15.6115H82.35ZM78.2338 23.7334C78.2338 24.3702 77.8986 24.9289 77.2282 25.4094C76.5578 25.882 75.6427 26.1166 74.4762 26.1166H74.3824C73.2561 26.1166 72.4114 25.882 71.855 25.4094C71.5961 25.213 71.3859 24.9597 71.2406 24.669C71.0953 24.3784 71.0188 24.0583 71.017 23.7334V23.663C71.0112 23.3443 71.0768 23.0283 71.2091 22.7383C71.3413 22.4483 71.5368 22.1916 71.7812 21.987C72.2885 21.54 73.1432 21.3166 74.3455 21.3166H74.4393C75.4128 21.266 76.3789 21.5102 77.2114 22.0172C77.8818 22.482 78.217 23.0328 78.217 23.6697L78.2338 23.7334Z" fill="#FFFFFE"/>
</g>
<path d="M18.2628 3.33066C17.9591 3.32731 17.6585 3.39188 17.383 3.51965C17.125 3.6379 16.8991 3.81632 16.7243 4.03993V3.40438H15.4343V8.50894H16.7243V5.68945C16.7243 5.28404 16.8271 4.97233 17.0329 4.75433C17.2386 4.53634 17.5195 4.4272 17.8758 4.42692C18.2258 4.42692 18.5022 4.53606 18.7051 4.75433C18.9079 4.97261 19.0094 5.28432 19.0094 5.68945V8.50894H20.2993V5.51416C20.2993 4.82648 20.1119 4.29064 19.7371 3.90664C19.3622 3.52266 18.8708 3.33066 18.2628 3.33066Z" fill="white"/>
<path d="M25.0399 4.13156C24.8577 3.88927 24.6234 3.69099 24.3543 3.55128C24.0685 3.39786 23.7354 3.32101 23.3548 3.32073C22.9377 3.31548 22.5275 3.42728 22.1707 3.64343C21.8103 3.8659 21.5197 4.18517 21.332 4.56483C21.1263 4.96481 21.0234 5.42194 21.0234 5.93621C21.0234 6.45877 21.1263 6.92104 21.332 7.32303C21.5202 7.70599 21.8104 8.02957 22.1707 8.25816C22.5224 8.47888 22.9301 8.59397 23.3454 8.58984C23.6961 8.59715 24.0429 8.51637 24.3543 8.35498C24.6271 8.21463 24.8623 8.01074 25.0399 7.76058V8.50716H26.3393V3.40386H25.0399V4.13156ZM24.8557 6.76248C24.741 6.97697 24.5686 7.1551 24.3581 7.27675C24.1539 7.3952 23.9218 7.45717 23.6856 7.45631C23.4532 7.45672 23.2251 7.39295 23.0266 7.27203C22.8158 7.14374 22.6439 6.96067 22.529 6.74233C22.3988 6.49382 22.3339 6.21627 22.3404 5.93578C22.3404 5.62894 22.4033 5.36338 22.529 5.13909C22.6145 4.98437 22.73 4.84826 22.8687 4.73874C23.0074 4.62922 23.1667 4.54848 23.337 4.50127C23.5073 4.45405 23.6854 4.4413 23.8607 4.46377C24.0361 4.48624 24.2052 4.54347 24.3581 4.63211C24.5686 4.75376 24.741 4.93189 24.8557 5.14638C24.9785 5.37066 25.0399 5.63937 25.0399 5.9525C25.0399 6.26563 24.9785 6.53563 24.8557 6.76248Z" fill="white"/>
<path d="M30.7235 6.21656C30.7235 6.62198 30.6221 6.93368 30.4193 7.15168C30.2164 7.36967 29.937 7.47867 29.581 7.47867C29.2307 7.47867 28.9542 7.36967 28.7517 7.15168C28.5492 6.93368 28.4477 6.62198 28.4474 6.21656V3.40436H27.1575V6.40084C27.1575 6.85568 27.2451 7.24724 27.4202 7.57552C27.582 7.89057 27.8338 8.1504 28.1436 8.32204C28.4694 8.4955 28.834 8.58271 29.203 8.57533C29.5037 8.57819 29.8013 8.51361 30.0738 8.38637C30.3302 8.26938 30.5535 8.09043 30.7235 7.86565V8.50853H32.0225V3.40607H30.7235V6.21656Z" fill="white"/>
<path d="M37.5178 3.40812H35.8408L34.127 5.57362V1.69431H32.837V8.51264H34.127V6.33817L35.8592 8.51264H37.5362L35.2695 5.96961L37.5178 3.40812Z" fill="white"/>
<path d="M39.4247 4.20055V3.40471H38.1339V8.51095H39.4239V5.96792C39.4239 5.4948 39.5267 5.16309 39.7324 4.97281C39.9382 4.78253 40.2439 4.68725 40.6496 4.68696H40.9924V3.33271C40.6776 3.32524 40.3665 3.40168 40.091 3.55419C39.8155 3.70671 39.5855 3.92979 39.4247 4.20055Z" fill="white"/>
<path d="M42.8824 3.40413H41.5924V8.51084H42.8824V3.40413Z" fill="white"/>
<path d="M42.238 2.7958C42.6641 2.7958 43.0095 2.45036 43.0095 2.02425C43.0095 1.59814 42.6641 1.25271 42.238 1.25271C41.8118 1.25271 41.4664 1.59814 41.4664 2.02425C41.4664 2.45036 41.8118 2.7958 42.238 2.7958Z" fill="white"/>
<path d="M6.03973 11.9139C9.32964 11.9139 11.9967 9.24687 11.9967 5.95696C11.9967 2.66702 9.32964 0 6.03973 0C2.74978 0 0.0827637 2.66702 0.0827637 5.95696C0.0827637 9.24687 2.74978 11.9139 6.03973 11.9139Z" fill="#265DF5"/>
<path d="M7.83448 8.16389L7.8212 8.76777L7.78262 10.5112V10.5784C4.83671 8.02895 4.33487 7.40709 4.24787 7.2181L4.24487 7.21167C4.2344 7.17608 4.23191 7.13861 4.23758 7.10196C4.23966 7.08838 4.24252 7.07492 4.24616 7.06167C4.24916 7.05096 4.25216 7.04067 4.25601 7.02953C4.28776 6.94615 4.33277 6.86843 4.38929 6.79939C4.42978 6.74708 4.47389 6.69768 4.52129 6.65154C4.62266 6.55131 4.73123 6.45863 4.84614 6.37427C4.90313 6.33141 4.9627 6.28856 5.0257 6.2457C5.14742 6.16256 5.27898 6.07942 5.41527 5.99842C6.4738 6.98582 7.81734 8.14809 7.83448 8.16389Z" fill="url(#paint0_linear_201_10538)"/>
<path d="M7.87295 2.43717L7.85967 3.04315L7.85281 3.34314L7.8391 3.94613L7.83224 4.24868L7.81896 4.85209C7.79796 4.86067 6.45442 5.38179 5.41903 5.99763C5.28274 6.07863 5.1516 6.16177 5.02947 6.24491C4.9669 6.28777 4.9069 6.33063 4.8499 6.37348C4.73517 6.45806 4.62661 6.55073 4.52505 6.65075C4.47777 6.69699 4.43366 6.7464 4.39306 6.7986C4.29963 6.91774 4.24349 7.03474 4.23535 7.14488L4.24649 6.64132V6.6379L4.24864 6.5599V6.53161L4.25763 6.21405L4.27478 5.5845L4.28292 5.2768L4.30006 4.65281C4.51306 3.77941 7.52111 2.5756 7.87295 2.43717Z" fill="white"/>
<path d="M5.09831 3.10564C5.58677 3.10564 5.98275 2.70967 5.98275 2.2212C5.98275 1.73274 5.58677 1.33676 5.09831 1.33676C4.60985 1.33676 4.21387 1.73274 4.21387 2.2212C4.21387 2.70967 4.60985 3.10564 5.09831 3.10564Z" fill="white"/>
<path d="M80.3949 8.64478C79.985 8.64478 79.6157 8.57219 79.2872 8.42699C78.9653 8.27545 78.7096 8.07347 78.5202 7.82095C78.3308 7.56212 78.2298 7.27489 78.2172 6.95925H79.3346C79.3535 7.1802 79.4576 7.36643 79.6467 7.51793C79.8429 7.66313 80.0859 7.73573 80.3758 7.73573C80.6792 7.73573 80.9127 7.67891 81.0771 7.56528C81.2471 7.44534 81.3329 7.29383 81.3329 7.11075C81.3329 6.91506 81.2376 6.76986 81.0485 6.67516C80.8651 6.58047 80.572 6.47631 80.1677 6.36268C79.7761 6.25536 79.4576 6.1512 79.2115 6.05019C78.9653 5.94919 78.7507 5.79452 78.5676 5.5862C78.3908 5.37787 78.3024 5.10327 78.3024 4.76237C78.3024 4.4846 78.3845 4.23209 78.5486 4.00483C78.7128 3.77125 78.9463 3.58817 79.2494 3.4556C79.5585 3.32303 79.912 3.25675 80.3099 3.25675C80.9032 3.25675 81.3798 3.40826 81.7396 3.71128C82.1057 4.00798 82.3019 4.41516 82.3265 4.93282H81.2471C81.2281 4.69924 81.1335 4.51301 80.9636 4.37413C80.7928 4.23524 80.5625 4.16581 80.2718 4.16581C79.9882 4.16581 79.7698 4.21946 79.6189 4.32678C79.4672 4.4341 79.3914 4.57614 79.3914 4.7529C79.3914 4.89179 79.4419 5.00857 79.5426 5.10327C79.6443 5.19796 79.7666 5.27371 79.912 5.33053C80.0573 5.38103 80.2718 5.44732 80.5561 5.52938C80.935 5.63039 81.2439 5.73455 81.4838 5.84187C81.73 5.94287 81.9421 6.09439 82.1184 6.2964C82.2955 6.49841 82.3869 6.7667 82.3932 7.10129C82.3932 7.39799 82.3114 7.66313 82.147 7.89671C81.9826 8.13026 81.7491 8.31334 81.4465 8.4459C81.1494 8.57846 80.7992 8.64478 80.3949 8.64478Z" fill="white"/>
<path d="M77.4437 3.34212V8.55971H76.3643V7.94423C76.1938 8.15884 75.9698 8.32929 75.6919 8.45558C75.4205 8.57551 75.1301 8.63548 74.8208 8.63548C74.4105 8.63548 74.0411 8.55026 73.7129 8.37981C73.3909 8.20936 73.1353 7.95686 72.9458 7.62225C72.7628 7.28767 72.6713 6.88364 72.6713 6.41017V3.34212H73.7413V6.2492C73.7413 6.71635 73.8581 7.07619 74.0916 7.3287C74.3252 7.5749 74.6441 7.698 75.048 7.698C75.4521 7.698 75.7709 7.5749 76.0045 7.3287C76.2443 7.07619 76.3643 6.71635 76.3643 6.2492V3.34212H77.4437Z" fill="white"/>
<path d="M67.7464 4.10923C67.9295 3.86934 68.1788 3.66734 68.4945 3.5032C68.8101 3.33907 69.1668 3.257 69.5645 3.257C70.0191 3.257 70.4325 3.37063 70.805 3.59789C71.1838 3.81884 71.4805 4.13133 71.6951 4.53535C71.9097 4.93938 72.017 5.40337 72.017 5.92733C72.017 6.45131 71.9097 6.92161 71.6951 7.33826C71.4805 7.7486 71.1838 8.07054 70.805 8.30413C70.4325 8.53137 70.0191 8.64503 69.5645 8.64503C69.1668 8.64503 68.8133 8.56608 68.5039 8.40826C68.1946 8.24416 67.9421 8.04218 67.7464 7.80226V11.0408H66.6669V3.34222H67.7464V4.10923ZM70.9186 5.92733C70.9186 5.5675 70.8429 5.25818 70.6913 4.99934C70.5461 4.7342 70.3505 4.53535 70.1043 4.40278C69.8643 4.2639 69.6056 4.19445 69.3278 4.19445C69.0563 4.19445 68.7975 4.2639 68.5513 4.40278C68.3114 4.54167 68.1157 4.74368 67.9642 5.00882C67.819 5.27396 67.7464 5.58645 67.7464 5.94628C67.7464 6.30611 67.819 6.62175 67.9642 6.8932C68.1157 7.15834 68.3114 7.36036 68.5513 7.49924C68.7975 7.63813 69.0563 7.70757 69.3278 7.70757C69.6056 7.70757 69.8643 7.63813 70.1043 7.49924C70.3505 7.35404 70.5461 7.14572 70.6913 6.87427C70.8429 6.60281 70.9186 6.28717 70.9186 5.92733Z" fill="white"/>
<path d="M63.5879 3.25675C63.9983 3.25675 64.3645 3.34198 64.6864 3.51242C65.0147 3.68287 65.2703 3.93538 65.4534 4.26997C65.6428 4.60455 65.7375 5.00857 65.7375 5.48203V8.55956H64.6675V5.64301C64.6675 5.17586 64.5507 4.81918 64.3171 4.57299C64.0836 4.32047 63.7647 4.19421 63.3607 4.19421C62.9567 4.19421 62.6347 4.32047 62.3949 4.57299C62.1613 4.81918 62.0444 5.17586 62.0444 5.64301V8.55956H60.9744V5.64301C60.9744 5.17586 60.8577 4.81918 60.6241 4.57299C60.3905 4.32047 60.0717 4.19421 59.6677 4.19421C59.2637 4.19421 58.9417 4.32047 58.7018 4.57299C58.4682 4.81918 58.3515 5.17586 58.3515 5.64301V8.55956H57.272V3.34198H58.3515V3.93854C58.5282 3.7239 58.7523 3.55661 59.0238 3.43667C59.2952 3.31673 59.5856 3.25675 59.8949 3.25675C60.3116 3.25675 60.684 3.34513 61.0123 3.52189C61.3406 3.69866 61.5931 3.95432 61.7699 4.2889C61.9277 3.97326 62.1739 3.7239 62.5085 3.54083C62.8431 3.35144 63.2029 3.25675 63.5879 3.25675Z" fill="white"/>
<path d="M50.9421 5.92733C50.9421 5.40337 51.0494 4.93938 51.2641 4.53535C51.485 4.13133 51.7818 3.81884 52.1542 3.59789C52.533 3.37063 52.9496 3.257 53.4041 3.257C53.8145 3.257 54.1711 3.33907 54.4741 3.5032C54.7835 3.66102 55.0297 3.85987 55.2128 4.09976V3.34222H56.3017V8.5598H55.2128V7.78332C55.0297 8.02955 54.7803 8.23471 54.4647 8.3988C54.149 8.56298 53.7892 8.64502 53.3852 8.64502C52.937 8.64502 52.5267 8.53137 52.1542 8.30413C51.7818 8.07054 51.485 7.7486 51.2641 7.33826C51.0494 6.92161 50.9421 6.45131 50.9421 5.92733ZM55.2128 5.94628C55.2128 5.58645 55.137 5.27396 54.9855 5.00882C54.8403 4.74368 54.6478 4.54167 54.4079 4.40278C54.168 4.2639 53.9092 4.19445 53.6314 4.19445C53.3537 4.19445 53.0948 4.2639 52.855 4.40278C52.615 4.53535 52.4193 4.7342 52.2678 4.99934C52.1226 5.25818 52.0501 5.5675 52.0501 5.92733C52.0501 6.28717 52.1226 6.60281 52.2678 6.87427C52.4193 7.14572 52.615 7.35404 52.855 7.49924C53.1011 7.63812 53.36 7.70757 53.6314 7.70757C53.9092 7.70757 54.168 7.63812 54.4079 7.49924C54.6478 7.36036 54.8403 7.15834 54.9855 6.8932C55.137 6.62175 55.2128 6.30611 55.2128 5.94628Z" fill="white"/>
<path d="M45.3046 5.94603C45.3046 5.40944 45.4119 4.93913 45.6266 4.53511C45.8474 4.12477 46.1505 3.80913 46.5356 3.58817C46.9207 3.36723 47.3626 3.25675 47.8613 3.25675C48.4926 3.25675 49.0134 3.40826 49.4237 3.71128C49.8404 4.00798 50.1213 4.4341 50.2665 4.98963H49.1018C49.0071 4.73081 48.8556 4.52879 48.6472 4.38359C48.4389 4.2384 48.1769 4.16581 47.8613 4.16581C47.4194 4.16581 47.0658 4.32363 46.8007 4.63927C46.5419 4.9486 46.4125 5.38419 46.4125 5.94603C46.4125 6.50788 46.5419 6.94662 46.8007 7.26227C47.0658 7.57791 47.4194 7.73573 47.8613 7.73573C48.4862 7.73573 48.8997 7.46112 49.1018 6.9119H50.2665C50.115 7.44218 49.8309 7.86514 49.4142 8.18077C48.9976 8.49014 48.4799 8.64478 47.8613 8.64478C47.3626 8.64478 46.9207 8.5343 46.5356 8.31334C46.1505 8.0861 45.8474 7.77045 45.6266 7.36643C45.4119 6.95609 45.3046 6.48263 45.3046 5.94603Z" fill="white"/>
</g>
<defs>
<linearGradient id="paint0_linear_201_10538" x1="7.2255" y1="9.07849" x2="3.73147" y2="5.04787" gradientUnits="userSpaceOnUse">
<stop stop-color="white"/>
<stop offset="1" stop-color="#265DF5"/>
</linearGradient>
<clipPath id="clip0_201_10538">
<rect width="82.3984" height="15.9219" fill="white" transform="translate(0 15.5242)"/>
</clipPath>
</defs>
</svg>
